nColumns=19
nRows=102
DataType=double
version=3
OpenSimVersion=4.1
endheader
time	ground_force_1_vx	ground_force_1_vy	ground_force_1_vz	ground_force_1_px	ground_force_1_py	ground_force_1_pz	ground_force_1_mx	ground_force_1_my	ground_force_1_mz	ground_force_2_vx	ground_force_2_vy	ground_force_2_vz	ground_force_2_px	ground_force_2_py	ground_force_2_pz	ground_force_2_mx	ground_force_2_my	ground_force_2_mz
1.3	0	0	0	-0.00260118	0	0.00156279	0	0	0	84.1426	1557.89	-7.93103	0.804299	0	-0.62601	-0	1.96365	-0
1.30833	0	0	0	-0.00260125	0	0.00156271	0	0	0	136.713	1410.79	-16.749	0.767407	0	-0.624914	-0	2.45002	-0
1.31667	0	0	0	-0.00260133	0	0.00156264	0	0	0	192.623	1239.61	-27.0931	0.725907	0	-0.623676	-0	2.9562	-0
1.325	0	0	0	-0.0026014	0	0.00156256	0	0	0	226.917	1054.71	-34.0226	0.687565	0	-0.622447	-0	3.26605	-0
1.33333	0	0	0	-0.00260147	0	0.00156249	0	0	0	229.835	859.335	-34.3254	0.656292	0	-0.620963	-0	3.22726	-0
1.34167	0	0	0	-0.00260154	0	0.00156242	0	0	0	211.36	657.23	-29.1407	0.629383	0	-0.619437	-0	2.8109	-0
1.35	0	0	0	-0.00260162	0	0.00156235	0	0	0	179.065	460.376	-21.7554	0.602469	0	-0.618719	-0	2.11399	-0
1.35833	0	0	0	-0.00260169	0	0.00156227	0	0	0	133.452	286.157	-14.0549	0.573312	0	-0.618342	-0	1.31225	-0
1.36667	0	0	0	-0.00260176	0	0.0015622	0	0	0	82.026	153.851	-6.33118	0.548488	0	-0.615353	-0	0.595185	-0
1.375	0	0	0	-0.00260183	0	0.00156213	0	0	0	38.8376	72.848	0.437069	0.566172	0	-0.607326	-0	0.108479	-0
1.38333	0	0	0	-0.0026019	0	0.00156206	0	0	0	13.068	32.7595	4.22471	0.675738	0	-0.597454	0	-0.086636	0
1.39167	0	0	0	-0.00260197	0	0.00156199	0	0	0	3.47004	13.9794	4.33671	0.756189	0	-0.580852	0	-0.028131	0
1.4	0	0	0	-0.00260204	0	0.00156192	0	0	0	0	0	0	-0.00260225	0	0.00156139	0	0	0
1.40833	0	0	0	-0.00260211	0	0.00156185	0	0	0	0	0	0	-0.00260232	0	0.00156132	0	0	0
1.41667	0	0	0	-0.00260218	0	0.00156178	0	0	0	0	0	0	-0.00260239	0	0.00156125	0	0	0
1.425	0	0	0	-0.00260224	0	0.00156171	0	0	0	0	0	0	-0.00260246	0	0.00156117	0	0	0
1.43333	0	0	0	-0.00260231	0	0.00156164	0	0	0	0	0	0	-0.00260253	0	0.0015611	0	0	0
1.44167	0	0	0	-0.00260238	0	0.00156157	0	0	0	0	0	0	-0.0026026	0	0.00156103	0	0	0
1.45	0	0	0	-0.00260245	0	0.00156151	0	0	0	0	0	0	-0.00260267	0	0.00156096	0	0	0
1.45833	0	0	0	-0.00260251	0	0.00156144	0	0	0	0	0	0	-0.00260274	0	0.00156089	0	0	0
1.46667	-1.35347	11.5665	2.35823	1.07118	0	-0.637125	-0	3.98258	-0	0	0	0	-0.0026028	0	0.00156082	0	0	0
1.475	-2.65896	17.0118	0.267217	1.04535	0	-0.631043	-0	5.86242	-0	0	0	0	-0.00260287	0	0.00156075	0	0	0
1.48333	-5.46844	42.7746	-3.08609	1.10867	0	-0.617899	-0	7.74709	-0	0	0	0	-0.00260294	0	0.00156068	0	0	0
1.49167	-14.1222	127.406	-6.91766	1.16592	0	-0.613935	-0	9.16682	-0	0	0	0	-0.002603	0	0.00156061	0	0	0
1.5	-33.7359	322.786	-10.1274	1.17738	0	-0.615391	-0	9.6394	-0	0	0	0	-0.00260307	0	0.00156054	0	0	0
1.50833	-68.5788	641.191	-9.5252	1.17018	0	-0.619093	-0	8.83289	-0	0	0	0	-0.00260313	0	0.00156048	0	0	0
1.51667	-116.06	979.087	0.0194789	1.15862	0	-0.622925	-0	6.72086	-0	0	0	0	-0.0026032	0	0.00156041	0	0	0
1.525	-167.315	1186.63	20.2646	1.14691	0	-0.625333	-0	3.65793	-0	0	0	0	-0.00260326	0	0.00156034	0	0	0
1.53333	-223.369	1255.31	44.1798	1.13528	0	-0.625728	-0	0.312464	-0	0	0	0	-0.00260332	0	0.00156028	0	0	0
1.54167	-275.661	1299.41	59.7422	1.11924	0	-0.625011	0	-2.54143	0	0	0	0	-0.00260338	0	0.00156021	0	0	0
1.55	-288.911	1395.84	60.7051	1.09192	0	-0.624596	0	-4.27981	0	0	0	0	-0.00260345	0	0.00156015	0	0	0
1.55833	-252.54	1545.18	51.3115	1.05566	0	-0.624559	0	-4.60474	0	0	0	0	-0.00260351	0	0.00156009	0	0	0
1.56667	-195.661	1705.61	39.7908	1.02076	0	-0.624018	0	-3.57424	0	0	0	0	-0.00260357	0	0.00156002	0	0	0
1.575	-146.199	1828.6	29.8773	0.991458	0	-0.622652	0	-1.51876	0	0	0	0	-0.00260363	0	0.00155996	0	0	0
1.58333	-109.635	1895.12	20.2962	0.964311	0	-0.620913	-0	1.07873	-0	0	0	0	-0.00260369	0	0.0015599	0	0	0
1.59167	-74.9925	1913.69	10.046	0.936161	0	-0.61928	-0	3.69062	-0	0	0	0	-0.00260374	0	0.00155984	0	0	0
1.6	-37.9588	1896.28	0.854715	0.907827	0	-0.617862	-0	5.83482	-0	0	0	0	-0.0026038	0	0.00155978	0	0	0
1.60833	-5.39784	1848.17	-5.10958	0.880932	0	-0.616555	-0	7.15132	-0	0	0	0	-0.00260386	0	0.00155972	0	0	0
1.61667	22.561	1771.78	-7.27982	0.854671	0	-0.615491	-0	7.45685	-0	0	0	0	-0.00260391	0	0.00155966	0	0	0
1.625	52.3891	1668.53	-5.80059	0.827156	0	-0.615014	-0	6.76692	-0	0	0	0	-0.00260397	0	0.0015596	0	0	0
1.63333	86.9384	1537.57	-0.388153	0.79715	0	-0.615318	-0	5.28397	-0	0	0	0	-0.00260402	0	0.00155955	0	0	0
1.64167	126.469	1376.05	8.61568	0.763619	0	-0.616095	-0	3.35459	-0	0	0	0	-0.00260408	0	0.00155949	0	0	0
1.65	169.582	1184.64	18.7764	0.726089	0	-0.616825	-0	1.39672	-0	0	0	0	-0.00260413	0	0.00155943	0	0	0
1.65833	204.322	974.683	26.5134	0.687459	0	-0.617541	0	-0.195449	0	0	0	0	-0.00260418	0	0.00155938	0	0	0
1.66667	211.745	762.108	29.7398	0.652675	0	-0.618274	0	-1.14432	0	0	0	0	-0.00260424	0	0.00155933	0	0	0
1.675	189.867	558.778	28.8304	0.623515	0	-0.618251	0	-1.34634	0	0	0	0	-0.00260429	0	0.00155927	0	0	0
1.68333	151.016	375.04	25.0873	0.599854	0	-0.616789	0	-0.876017	0	0	0	0	-0.00260434	0	0.00155922	0	0	0
1.69167	104.851	223.871	19.4733	0.584041	0	-0.614312	-0	0.057356	-0	0	0	0	-0.00260439	0	0.00155917	0	0	0
1.7	59.2	114.877	13.1469	0.574389	0	-0.610242	-0	1.17965	-0	0	0	0	-0.00260443	0	0.00155912	0	0	0
1.70833	23.9974	48.6877	7.91348	0.557798	0	-0.599412	-0	2.2278	-0	0	0	0	-0.00260448	0	0.00155907	0	0	0
1.71667	5.47292	18.498	5.11187	0.556382	0	-0.584093	-0	3.01222	-0	0	0	0	-0.00260453	0	0.00155902	0	0	0
1.725	0.235899	10.9478	4.3542	0.699664	0	-0.612161	-0	3.4479	-0	0	0	0	-0.00260458	0	0.00155897	0	0	0
1.73333	0	0	0	-0.00260435	0	0.00155958	0	0	0	0	0	0	-0.00260462	0	0.00155892	0	0	0
1.74167	0	0	0	-0.00260439	0	0.00155954	0	0	0	0	0	0	-0.00260467	0	0.00155888	0	0	0
1.75	0	0	0	-0.00260444	0	0.0015595	0	0	0	0	0	0	-0.00260471	0	0.00155883	0	0	0
1.75833	0	0	0	-0.00260448	0	0.00155945	0	0	0	0	0	0	-0.00260475	0	0.00155879	0	0	0
1.76667	0	0	0	-0.00260452	0	0.00155941	0	0	0	0	0	0	-0.00260479	0	0.00155874	0	0	0
1.775	0	0	0	-0.00260456	0	0.00155937	0	0	0	0	0	0	-0.00260484	0	0.0015587	0	0	0
1.78333	0	0	0	-0.0026046	0	0.00155933	0	0	0	0	0	0	-0.00260488	0	0.00155866	0	0	0
1.79167	0	0	0	-0.00260464	0	0.00155929	0	0	0	0	0	0	-0.00260492	0	0.00155862	0	0	0
1.8	0	0	0	-0.00260468	0	0.00155926	0	0	0	0	0	0	-0.00260495	0	0.00155858	0	0	0
1.80833	0	0	0	-0.00260471	0	0.00155922	0	0	0	0.433038	10.6191	3.71428	1.08487	0	-0.638851	0	-1.28392	0
1.81667	0	0	0	-0.00260475	0	0.00155918	0	0	0	-1.68566	19.8807	4.01566	1.10102	0	-0.623642	0	-1.71592	0
1.825	0	0	0	-0.00260478	0	0.00155915	0	0	0	-4.39535	54.2464	3.87918	1.11863	0	-0.622645	0	-1.63347	0
1.83333	0	0	0	-0.00260482	0	0.00155911	0	0	0	-9.91939	160.163	2.97126	1.13005	0	-0.625367	0	-0.791985	0
1.84167	0	0	0	-0.00260485	0	0.00155908	0	0	0	-23.6218	390.726	-0.281528	1.12829	0	-0.625866	-0	0.939362	-0
1.85	0	0	0	-0.00260488	0	0.00155904	0	0	0	-52.2585	735.243	-8.60461	1.11969	0	-0.62588	-0	3.47406	-0
1.85833	0	0	0	-0.00260492	0	0.00155901	0	0	0	-95.7471	1061.94	-23.2312	1.10817	0	-0.62553	-0	6.45317	-0
1.86667	0	0	0	-0.00260495	0	0.00155898	0	0	0	-144.816	1230.27	-40.3856	1.09507	0	-0.624477	-0	9.29173	-0
1.875	0	0	0	-0.00260498	0	0.00155895	0	0	0	-195.495	1269.46	-51.2678	1.08022	0	-0.623391	-0	11.344	-0
1.88333	0	0	0	-0.00260501	0	0.00155892	0	0	0	-240.979	1316.36	-48.3483	1.06182	0	-0.62331	-0	12.1314	-0
1.89167	0	0	0	-0.00260503	0	0.00155889	0	0	0	-254.914	1436.4	-33.5109	1.03746	0	-0.624194	-0	11.5162	-0
1.9	0	0	0	-0.00260506	0	0.00155887	0	0	0	-226.612	1598.65	-17.2901	1.00729	0	-0.625507	-0	9.72217	-0
1.90833	0	0	0	-0.00260509	0	0.00155884	0	0	0	-174.289	1749.01	-7.71433	0.974545	0	-0.626952	-0	7.2087	-0
1.91667	0	0	0	-0.00260511	0	0.00155881	0	0	0	-118.893	1860.18	-3.14646	0.942687	0	-0.628317	-0	4.5011	-0
1.925	0	0	0	-0.00260514	0	0.00155879	0	0	0	-75.4503	1924.93	1.65405	0.914437	0	-0.629281	-0	2.06932	-0
1.93333	0	0	0	-0.00260516	0	0.00155877	0	0	0	-42.5987	1940.16	6.71762	0.888586	0	-0.62989	-0	0.268627	-0
1.94167	0	0	0	-0.00260518	0	0.00155874	0	0	0	-9.38495	1911	8.09399	0.861195	0	-0.630616	0	-0.693027	0
1.95	0	0	0	-0.0026052	0	0.00155872	0	0	0	29.8523	1849.13	4.74943	0.830999	0	-0.631553	0	-0.774903	0
1.95833	0	0	0	-0.00260523	0	0.0015587	0	0	0	72.0022	1760.4	-0.681612	0.800082	0	-0.632126	0	-0.096086	0
1.96667	0	0	0	-0.00260525	0	0.00155868	0	0	0	112.799	1639.86	-6.92803	0.769277	0	-0.631838	-0	1.10113	-0
1.975	0	0	0	-0.00260526	0	0.00155866	0	0	0	159.32	1483.51	-15.4364	0.734998	0	-0.630984	-0	2.49884	-0
1.98333	0	0	0	-0.00260528	0	0.00155864	0	0	0	212	1297.06	-26.0884	0.694832	0	-0.630153	-0	3.75416	-0
1.99167	0	0	0	-0.0026053	0	0.00155863	0	0	0	248.141	1091.2	-34.7276	0.653103	0	-0.629428	-0	4.56408	-0
2	0	0	0	-0.00260531	0	0.00155861	0	0	0	249.684	875.174	-36.6744	0.617932	0	-0.628649	-0	4.74304	-0
2.00833	0	0	0	-0.00260533	0	0.0015586	0	0	0	222.959	655.59	-31.4785	0.592869	0	-0.627734	-0	4.27961	-0
2.01667	0	0	0	-0.00260534	0	0.00155858	0	0	0	182.399	445.56	-22.9435	0.572091	0	-0.626657	-0	3.33301	-0
2.025	0	0	0	-0.00260536	0	0.00155857	0	0	0	133.885	267.989	-14.8837	0.548609	0	-0.625605	-0	2.16662	-0
2.03333	0	0	0	-0.00260537	0	0.00155856	0	0	0	82.6522	141.747	-8.12471	0.528245	0	-0.6246	-0	1.0562	-0
2.04167	0	0	0	-0.00260538	0	0.00155854	0	0	0	39.9356	67.8026	-2.00268	0.53753	0	-0.620631	-0	0.214738	-0
2.05	0	0	0	-0.00260539	0	0.00155853	0	0	0	13.555	31.923	2.7815	0.612961	0	-0.60736	0	-0.249855	0
2.05833	0	0	0	-0.0026054	0	0.00155853	0	0	0	3.00476	16.1618	4.5886	0.698968	0	-0.591925	0	-0.346809	0
2.06667	0	0	0	-0.00260541	0	0.00155852	0	0	0	0	0	0	-0.0026057	0	0.00155779	0	0	0
2.075	0	0	0	-0.00260541	0	0.00155851	0	0	0	0	0	0	-0.00260571	0	0.00155779	0	0	0
2.08333	0	0	0	-0.00260542	0	0.0015585	0	0	0	0	0	0	-0.00260572	0	0.00155778	0	0	0
2.09167	0	0	0	-0.00260543	0	0.0015585	0	0	0	0	0	0	-0.00260572	0	0.00155777	0	0	0
2.1	0	0	0	-0.00260543	0	0.00155849	0	0	0	0	0	0	-0.00260573	0	0.00155777	0	0	0
2.10833	0	0	0	-0.00260543	0	0.00155849	0	0	0	0	0	0	-0.00260573	0	0.00155777	0	0	0
2.11667	0	0	0	-0.00260544	0	0.00155849	0	0	0	0	0	0	-0.00260573	0	0.00155776	0	0	0
2.125	0	0	0	-0.00260544	0	0.00155849	0	0	0	0	0	0	-0.00260573	0	0.00155776	0	0	0
2.13333	-0.368107	11.7148	1.77959	0.965735	0	-0.59187	-0	3.85051	-0	0	0	0	-0.00260573	0	0.00155776	0	0	0
2.14167	-2.95675	24.85	-1.47644	1.06868	0	-0.593104	-0	5.56825	-0	0	0	0	-0.00260573	0	0.00155776	0	0	0
